<svg width="120" height="24" viewBox="0 0 120 24" fill="none" xmlns="http://www.w3.org/2000/svg">
<defs><clipPath id="clip_half_9"><rect width="24" height="24" fill="white"/></clipPath></defs>
<g transform="translate(0, 0)"><path d="M14.7002 8.7002L21.5996 9.27539L16.3496 13.75L17.9248 20.4004L12 16.875L6.0752 20.4004L7.65039 13.75L2.40039 9.27539L9.2998 8.6748L12 2.40039L14.7002 8.7002Z" fill="#FF492C"/></g>
<g transform="translate(24, 0)"><path d="M14.7002 8.7002L21.5996 9.27539L16.3496 13.75L17.9248 20.4004L12 16.875L6.0752 20.4004L7.65039 13.75L2.40039 9.27539L9.2998 8.6748L12 2.40039L14.7002 8.7002Z" fill="#FF492C"/></g>
<g transform="translate(48, 0)"><path d="M14.7002 8.7002L21.5996 9.27539L16.3496 13.75L17.9248 20.4004L12 16.875L6.0752 20.4004L7.65039 13.75L2.40039 9.27539L9.2998 8.6748L12 2.40039L14.7002 8.7002Z" fill="#FF492C"/></g>
<g transform="translate(72, 0)"><path d="M14.7002 8.7002L21.5996 9.27539L16.3496 13.75L17.9248 20.4004L12 16.875L6.0752 20.4004L7.65039 13.75L2.40039 9.27539L9.2998 8.6748L12 2.40039L14.7002 8.7002Z" fill="#FF492C"/></g>
<g transform="translate(96, 0)"><g clip-path="url(#clip_half_9)"><path d="M6.13672 20.4L7.69531 13.75L2.5 9.27499L9.32812 8.67499L12 2.39999L14.6719 8.69999L21.5 9.27499L16.3047 13.75L17.8633 20.4L12 16.875L6.13672 20.4Z" fill="#DFDFE2"/><path d="M6.13672 20.4L7.69531 13.75L2.5 9.27499L9.32812 8.67499L12 2.39999V16.875L6.13672 20.4Z" fill="#FF492C"/></g></g>
</svg>
